<svg width="24" height="24" viewBox="0 0 24 24" fill="none" xmlns="http://www.w3.org/2000/svg">
<path d="M20.6999 5.90015V7.50015H11.8999V5.90015H20.6999Z" fill="#AEB4C1"/>
<path d="M18.2999 11.5002H11.8999V13.1002H18.2999V11.5002Z" fill="#AEB4C1"/>
<path d="M11.8999 17.9001V19.5001H16.6999V17.9001H11.8999Z" fill="#AEB4C1"/>
<path fill-rule="evenodd" clip-rule="evenodd" d="M8.00004 5.9C8.00004 5.40294 7.59709 5 7.10004 5C6.60298 5 6.20004 5.40294 6.20004 5.9V16.9002L4.44005 15.5802C4.04241 15.282 3.47829 15.3625 3.18005 15.7602C2.88182 16.1578 2.96241 16.722 3.36005 17.0202L6.56005 19.4202C6.88005 19.6602 7.32005 19.6602 7.64005 19.4202L10.8401 17.0202C11.2377 16.722 11.3183 16.1578 11.0201 15.7602C10.7218 15.3625 10.1577 15.282 9.76005 15.5802L8.00004 16.9002V5.9Z" fill="#AEB4C1"/>
</svg>
