<svg width="24" height="24" viewBox="0 0 24 24" fill="none" xmlns="http://www.w3.org/2000/svg">
<path opacity="0.1" fill-rule="evenodd" clip-rule="evenodd" d="M0 12C0 5.37258 5.37258 0 12 0C18.6274 0 24 5.37258 24 12C24 18.6274 18.6274 24 12 24C5.37258 24 0 18.6274 0 12Z" fill="white"/>
<path fill-rule="evenodd" clip-rule="evenodd" d="M11.9 5.5C8.364 5.5 5.5 8.364 5.5 11.9C5.5 14.732 7.332 17.124 9.876 17.972C10.196 18.028 10.316 17.836 10.316 17.668C10.316 17.516 10.308 17.012 10.308 16.476C8.7 16.772 8.284 16.084 8.156 15.724C8.084 15.54 7.772 14.972 7.5 14.82C7.276 14.7 6.956 14.404 7.492 14.396C7.996 14.388 8.356 14.86 8.476 15.052C9.052 16.02 9.972 15.748 10.34 15.58C10.396 15.164 10.564 14.884 10.748 14.724C9.324 14.564 7.836 14.012 7.836 11.564C7.836 10.868 8.084 10.292 8.492 9.844C8.428 9.684 8.204 9.028 8.556 8.148C8.556 8.148 9.092 7.98 10.316 8.804C10.828 8.66 11.372 8.588 11.916 8.588C12.46 8.588 13.004 8.66 13.516 8.804C14.74 7.972 15.276 8.148 15.276 8.148C15.628 9.028 15.404 9.684 15.34 9.844C15.748 10.292 15.996 10.86 15.996 11.564C15.996 14.02 14.5 14.564 13.076 14.724C13.308 14.924 13.508 15.308 13.508 15.908C13.508 16.764 13.5 17.452 13.5 17.668C13.5 17.836 13.62 18.036 13.94 17.972C15.2105 17.5431 16.3145 16.7265 17.0966 15.6373C17.8787 14.548 18.2996 13.241 18.3 11.9C18.3 8.364 15.436 5.5 11.9 5.5Z" fill="white"/>
</svg>
