<svg width="18" height="18" viewBox="0 0 18 18" fill="none" xmlns="http://www.w3.org/2000/svg">
<path d="M9.25153 17.9999H9.16136C7.92468 17.9905 6.70231 17.7344 5.56583 17.2465C4.42935 16.7587 3.40161 16.0489 2.54278 15.1588C0.950211 13.4553 0.0449229 11.2221 0.00162765 8.89018C-0.0416676 6.55829 0.780098 4.293 2.30833 2.53151C3.2929 1.42784 4.53064 0.579766 5.91519 0.060171C6.07674 -0.00201076 6.25278 -0.0163656 6.42227 0.0188205C6.59175 0.0540066 6.74754 0.137247 6.87101 0.2586C6.98536 0.375241 7.06589 0.52076 7.10401 0.679615C7.14213 0.838471 7.13639 1.0047 7.08742 1.16055C6.59324 2.51431 6.49533 3.98098 6.80518 5.38845C7.11503 6.79592 7.81979 8.08579 8.83675 9.10671C9.86319 10.1208 11.1558 10.8234 12.5649 11.133C13.974 11.4427 15.442 11.3468 16.7989 10.8565C16.9604 10.7996 17.1347 10.7899 17.3015 10.8285C17.4684 10.8671 17.6207 10.9525 17.7409 11.0745C17.861 11.1965 17.9439 11.3503 17.9799 11.5177C18.0158 11.6851 18.0034 11.8594 17.9441 12.02C17.4834 13.25 16.7638 14.3666 15.834 15.2941C14.9692 16.1566 13.9424 16.8397 12.8127 17.304C11.6831 17.7684 10.4728 18.0049 9.25153 17.9999Z" fill="#CCCED6"/>
</svg>
