<svg width="24" height="24" viewBox="0 0 24 24" fill="none" xmlns="http://www.w3.org/2000/svg">
<path d="M24 14.358L20.96 11.393L23.568 8.045L19.454 6.994L20.038 2.79L15.95 3.932L14.35 0L11.385 3.04L8.037 0.432L6.986 4.546L2.782 3.962L3.924 8.049L-0.00799561 9.645L3.032 12.611L0.424004 15.959L4.538 17.01L3.948 21.214L8.035 20.072L9.635 24.004L12.6 20.964L15.948 23.572L16.999 19.458L21.204 20.048L20.062 15.961L24 14.358ZM14.281 18.66C12.9653 19.1075 11.5465 19.1556 10.2035 18.7982C8.86045 18.4408 7.65326 17.6939 6.73402 16.6515C5.81477 15.6092 5.22459 14.3181 5.03785 12.941C4.85111 11.5638 5.07615 10.1622 5.68463 8.91268C6.29311 7.6632 7.2578 6.62176 8.45715 5.9196C9.65649 5.21744 11.0368 4.88597 12.4242 4.96696C13.8116 5.04794 15.144 5.53775 16.2535 6.37468C17.3631 7.21161 18.2 8.35821 18.659 9.67L18.674 9.719C18.914 10.398 19.052 11.18 19.052 11.995C19.052 13.4562 18.5975 14.8813 17.7514 16.0726C16.9054 17.2639 15.7096 18.1626 14.33 18.644L14.281 18.659V18.66Z" fill="white"/>
</svg>
