<svg width="24" height="24" viewBox="0 0 24 24" fill="none" xmlns="http://www.w3.org/2000/svg">
<path opacity="0.1" fill-rule="evenodd" clip-rule="evenodd" d="M0 12C0 5.37258 5.37258 0 12 0C18.6274 0 24 5.37258 24 12C24 18.6274 18.6274 24 12 24C5.37258 24 0 18.6274 0 12Z" fill="white"/>
<path d="M17.19 7.06575L6.56033 11.1387C5.83489 11.4282 5.83909 11.8303 6.42723 12.0096L9.1563 12.8555L15.4706 8.89699C15.7691 8.71649 16.0419 8.81359 15.8177 9.01137L10.7019 13.599H10.7007L10.7019 13.5996L10.5136 16.3947C10.7894 16.3947 10.9111 16.269 11.0658 16.1207L12.3914 14.8399L15.1486 16.8635C15.657 17.1417 16.0221 16.9988 16.1486 16.3959L17.9586 7.92001C18.1439 7.18192 17.675 6.84772 17.19 7.06575Z" fill="white"/>
</svg>
